<svg xmlns="http://www.w3.org/2000/svg" viewBox="0 0 900 700">
  <defs>
    <linearGradient id="bg" x1="0" x2="1" y1="0" y2="1">
      <stop offset="0%" stop-color="#4f46e5" />
      <stop offset="100%" stop-color="#3b82f6" />
    </linearGradient>
  </defs>
  <rect width="900" height="700" rx="40" fill="#eef2ff" />
  <circle cx="550" cy="260" r="200" fill="#eef2ff" />
  <path d="M380 620c0-136 110-246 246-246s246 110 246 246H380Z" fill="#dbeafe" />
  <path d="M494 202c-24 0-44 20-44 44s20 44 44 44 44-20 44-44-20-44-44-44Zm0 75c-17 0-31-14-31-31s14-31 31-31 31 14 31 31-14 31-31 31Z" fill="#2d3748" />
  <path d="M456 258c-23 0-58 16-85 40-26 22-38 50-32 78l11 58 19-2-7-45c-4-26 9-54 35-75 34-27 78-28 103-10 15 10 28 29 36 52l9 34 19-5-9-38c-10-41-34-72-66-86-9-4-18-6-29-6Z" fill="#1d4ed8" />
  <path d="M504 300c7 15 6 34-5 46l-24 24 18 21 34-34c18-18 18-45 1-63l-24-24-6 30Z" fill="#2563eb" />
  <path d="M529 491c0 18-15 33-33 33s-33-15-33-33 15-33 33-33 33 15 33 33Z" fill="#1d4ed8" />
  <path d="M323 295c17-28 46-47 79-47 27 0 53 12 71 34 15 19 42 23 62 10 21-13 26-41 12-61-17-24-44-39-73-39-46 0-87 30-103 73-8 21-4 45 11 62 32 33 98 38 143 30 45-8 90-28 128-52 21-14 13-47-12-49-25-2-42 11-62 25-29 20-63 36-98 43-26 5-54 7-81 1-36-8-59-45-42-79Z" fill="#4f46e5" opacity="0.24" />
  <path d="M124 364c44-52 118-70 181-46 62 24 100 87 96 148-4 64-53 113-117 121-79 10-151-41-166-118-7-38 6-80 30-105Z" fill="#fff" opacity="0.72" />
  <path d="M125 371c40-47 106-64 163-43 51 20 82 67 83 118 1 50-30 91-77 104-66 18-140-16-166-81-13-34-7-69 0-98Z" fill="#93c5fd" opacity="0.65" />
  <path d="M110 160h190v120H110z" fill="#2563eb" rx="28" />
  <circle cx="190" cy="220" r="24" fill="#fff" />
  <path d="M140 215h50v10h-50z" fill="#93c5fd" />
  <path d="M130 240h120v10H130z" fill="#93c5fd" />
  <path d="M720 120h120v80H720z" fill="#fff" stroke="#3b82f6" stroke-width="12" rx="24" />
  <path d="M750 145h60v10h-60z" fill="#3b82f6" />
  <path d="M760 180h40v10h-40z" fill="#3b82f6" />
  <path d="M693 495c24 0 68-30 88-44 23-16 52-10 70 12 26 31 68 31 94 4 26-26 26-68 0-94-26-26-68-26-94 0-14 14-20 34-16 54-34 18-76 38-115 38-12 0-24 8-26 20-5 22 14 42 36 42Z" fill="#3b82f6" opacity="0.4" />
  <path d="M760 520c-5 6-6 14-2 20 8 12 28 14 39 5 11-8 13-25 4-35-10-11-28-13-41-9-3 1-6 3-8 4Z" fill="#2563eb" />
</svg>
